<svg width="24" height="24" viewBox="0 0 24 24" fill="none" xmlns="http://www.w3.org/2000/svg">
<path d="M22 5.85108C21.25 6.21538 20.5 6.34338 19.62 6.46154C20.5 5.96923 21.12 5.23077 21.37 4.24615C20.5606 4.72005 19.6743 5.05313 18.75 5.23077C17.9485 4.45516 16.8737 4.01424 15.75 4C13.62 4 11.75 5.85108 11.75 8.06646C11.75 8.43077 11.75 8.67692 11.88 8.92308C10.2422 8.86226 8.63643 8.45742 7.17046 7.73571C5.70448 7.014 4.41212 5.99209 3.38 4.73846C3.00812 5.37416 2.83425 6.10347 2.88 6.83569C2.89162 7.49732 3.06825 8.14599 3.39434 8.7246C3.72043 9.30322 4.18597 9.79403 4.75 10.1538C4.12 10.1538 3.5 9.90769 2.87 9.66154C2.87 11.6308 4.25 13.2357 6.12 13.6C5.75 13.728 5.37 13.728 5 13.728C4.75 13.728 4.5 13.728 4.25 13.6C4.75 15.2049 6.25 16.4357 8.13 16.4357C6.67779 17.584 4.8622 18.1938 3 18.1588H2C3.87496 19.3197 6.03554 19.9562 8.25 20C15.75 20 19.88 13.8462 19.88 8.54892V8.05662C20.7387 7.47918 21.4617 6.72708 22 5.85108Z" fill="white"/>
</svg>
