<svg width="24" height="24" viewBox="0 0 24 24" fill="none" xmlns="http://www.w3.org/2000/svg">
<path d="M13.0265 2C14.8272 2 15.2073 2.02001 16.1277 2.06003C17.1881 2.11005 17.9184 2.28014 18.5486 2.53027C19.2089 2.78039 19.7691 3.13057 20.3193 3.68084C20.8796 4.23112 21.2197 4.7914 21.4798 5.45173C21.7299 6.08204 21.89 6.81241 21.94 7.88294C21.99 8.83342 22 9.2036 22 11.2046V12.8054C22 14.8064 21.99 15.1766 21.94 16.1271C21.9243 16.9543 21.7687 17.7729 21.4798 18.5483C21.2197 19.2086 20.8796 19.7689 20.3293 20.3192C19.7691 20.8794 19.2089 21.2196 18.5486 21.4797C17.9184 21.7299 17.1881 21.8899 16.1277 21.94C15.1773 21.99 14.7972 22 12.7964 22H11.2057C9.20495 22 8.83481 21.99 7.87443 21.94C7.04728 21.924 6.22877 21.7684 5.45347 21.4797C4.78681 21.2291 4.18262 20.8365 3.68277 20.3292C3.17037 19.8276 2.77424 19.2196 2.52231 18.5483C2.23382 17.7728 2.07824 16.9543 2.06213 16.1271C2.01309 15.094 1.99307 14.0597 2.00211 13.0255V10.9745C2.00211 9.17359 2.02212 8.7934 2.06213 7.87294C2.11215 6.81241 2.28222 6.08204 2.52231 5.45173C2.78242 4.7914 3.12255 4.23112 3.68277 3.68084C4.17814 3.16801 4.78364 2.77456 5.45347 2.53027C6.22823 2.23833 7.04672 2.07934 7.87443 2.06003C8.79479 2.02001 9.17494 2 10.9757 2H13.0265ZM13.0465 3.8009H10.9556C9.22496 3.8009 8.85481 3.82091 7.95446 3.86093C6.98407 3.90095 6.45387 4.06103 6.10373 4.2011C5.63354 4.38119 5.30341 4.6013 4.95327 4.95148C4.60313 5.30165 4.38305 5.63182 4.20298 6.10205C4.07292 6.45223 3.90286 6.98249 3.86284 7.96298C3.82283 8.86343 3.80282 9.22361 3.80282 10.9645V13.0455C3.80282 14.7864 3.82283 15.1466 3.86284 16.047C3.90286 17.0175 4.06292 17.5478 4.20298 17.8979C4.38305 18.3682 4.60313 18.6983 4.95327 19.0485C5.30341 19.3987 5.63354 19.6188 6.10373 19.7989C6.45387 19.939 6.98407 20.099 7.96446 20.1391C8.93484 20.1891 9.28498 20.1991 11.4458 20.1991H12.5563C14.7271 20.1991 15.0673 20.1891 16.0477 20.1391C17.018 20.099 17.5482 19.939 17.8984 19.7989C18.3686 19.6188 18.6987 19.3987 19.0488 19.0485C19.399 18.6983 19.6191 18.3682 19.7991 17.8979C19.9392 17.5478 20.0993 17.0175 20.1393 16.047C20.1893 15.0665 20.1993 14.7264 20.1993 12.5553V11.4547C20.1993 9.28364 20.1893 8.93347 20.1393 7.95298C20.0993 6.98249 19.9392 6.45223 19.7991 6.10205C19.6382 5.66726 19.3818 5.27409 19.0488 4.95148C18.7265 4.61823 18.3333 4.36178 17.8984 4.2011C17.3051 3.98416 16.6793 3.86915 16.0477 3.86093C15.048 3.81317 14.0472 3.79316 13.0465 3.8009ZM12.0061 6.86243C13.3685 6.86243 14.6751 7.40371 15.6385 8.36719C16.6019 9.33067 17.1431 10.6374 17.1431 12C17.1431 13.3626 16.6019 14.6693 15.6385 15.6328C14.6751 16.5963 13.3685 17.1376 12.0061 17.1376C10.6436 17.1376 9.33701 16.5963 8.37363 15.6328C7.41025 14.6693 6.86903 13.3626 6.86903 12C6.86903 10.6374 7.41025 9.33067 8.37363 8.36719C9.33701 7.40371 10.6436 6.86243 12.0061 6.86243ZM12.0061 8.66333C11.1212 8.66333 10.2726 9.01487 9.64692 9.64062C9.02124 10.2664 8.66974 11.1151 8.66974 12C8.66974 12.8849 9.02124 13.7336 9.64692 14.3594C10.2726 14.9851 11.1212 15.3367 12.0061 15.3367C12.8909 15.3367 13.7395 14.9851 14.3652 14.3594C14.9909 13.7336 15.3424 12.8849 15.3424 12C15.3424 11.1151 14.9909 10.2664 14.3652 9.64062C13.7395 9.01487 12.8909 8.66333 12.0061 8.66333ZM17.3382 5.46173C17.6565 5.46173 17.9619 5.58822 18.187 5.81338C18.4122 6.03853 18.5386 6.34391 18.5386 6.66233C18.5386 6.98075 18.4122 7.28613 18.187 7.51128C17.9619 7.73644 17.6565 7.86293 17.3382 7.86293C17.0198 7.86293 16.7144 7.73644 16.4893 7.51128C16.2642 7.28613 16.1377 6.98075 16.1377 6.66233C16.1377 6.34391 16.2642 6.03853 16.4893 5.81338C16.7144 5.58822 17.0198 5.46173 17.3382 5.46173Z" fill="white"/>
</svg>
