<svg width="24" height="24" viewBox="0 0 24 24" fill="none" xmlns="http://www.w3.org/2000/svg">
<path d="M10.1453 15.38V8.62L16.1612 12L10.1453 15.38ZM23.5139 6.5C23.3848 6.01772 23.1298 5.57733 22.7744 5.22285C22.4189 4.86838 21.9755 4.61222 21.4883 4.48C19.6957 4 12.4949 4 12.4949 4C12.4949 4 5.30427 4 3.51167 4.48C3.02454 4.61222 2.58109 4.86838 2.22564 5.22285C1.87019 5.57733 1.61519 6.01772 1.48613 6.5C1 8.28 1 12 1 12C1 12 1 15.72 1.476 17.5C1.60594 17.9835 1.86246 18.4247 2.21979 18.7793C2.57712 19.1338 3.02267 19.3893 3.51167 19.52C5.30427 20 12.5051 20 12.5051 20C12.5051 20 19.6957 20 21.4883 19.52C21.9755 19.3878 22.4189 19.1316 22.7744 18.7771C23.1298 18.4227 23.3848 17.9823 23.5139 17.5C24 15.72 24 12 24 12C24 12 24 8.28 23.524 6.5H23.5139Z" fill="white"/>
</svg>
