<svg width="24" height="24" viewBox="0 0 24 24" fill="none" xmlns="http://www.w3.org/2000/svg">
<path d="M12.0006 2C9.66765 2.00824 7.4105 2.82603 5.61714 4.31278C3.82378 5.79953 2.60626 7.86236 2.17389 10.1466C1.74152 12.4309 2.12131 14.7939 3.24797 16.8294C4.37464 18.8649 6.17778 20.4457 8.34742 21.3001C8.24706 20.5101 8.17681 19.3001 8.37753 18.4301L9.55176 13.46C9.55176 13.46 9.25067 12.86 9.25067 11.98C9.25067 10.59 10.0636 9.56002 11.0772 9.56002C11.9303 9.56002 12.3518 10.2 12.3518 10.96C12.3518 11.82 11.7998 13.1 11.5088 14.29C11.2679 15.29 12.0106 16.1 13.0042 16.1C14.7906 16.1 16.1555 14.23 16.1555 11.53C16.1555 9.13002 14.4293 7.47002 11.9604 7.47002C11.3739 7.44435 10.7882 7.53736 10.2388 7.74344C9.68936 7.94952 9.18751 8.2644 8.76357 8.66907C8.33962 9.07373 8.00236 9.55979 7.77215 10.0979C7.54193 10.636 7.42353 11.2151 7.4241 11.8C7.4241 12.66 7.75529 13.58 8.16677 14.08C8.24706 14.18 8.2571 14.27 8.22699 14.37L7.94598 15.5C7.90583 15.68 7.79544 15.73 7.61479 15.64C6.35024 15.05 5.56742 13.24 5.56742 11.76C5.56742 8.61002 7.87572 5.72001 12.2113 5.72001C15.6838 5.72001 18.4036 8.18002 18.4036 11.49C18.4036 14.94 16.2157 17.71 13.1848 17.71C12.1812 17.71 11.2178 17.18 10.8966 16.56L10.2643 18.9301C9.96812 19.8577 9.54964 20.7421 9.01984 21.5601C10.3986 21.9816 11.8524 22.1021 13.2822 21.9134C14.7119 21.7246 16.084 21.231 17.3051 20.4662C18.5261 19.7014 19.5673 18.6834 20.3579 17.4815C21.1485 16.2795 21.6698 14.9219 21.8863 13.5012C22.1028 12.0804 22.0094 10.6298 21.6126 9.24824C21.2157 7.86666 20.5246 6.58654 19.5865 5.49507C18.6483 4.4036 17.4851 3.52643 16.176 2.9233C14.867 2.32017 13.4428 2.00525 12.0006 2Z" fill="white"/>
</svg>
